<svg width="16" height="16" viewBox="0 0 16 16" fill="none" xmlns="http://www.w3.org/2000/svg">
<path d="M8.12632 0.585749C8.10579 0.585749 8.0864 0.590881 8.06701 0.590881C8.00656 0.589171 7.94668 0.585178 7.88565 0.585749H8.12632ZM8.03279 9.86695C8.02196 9.86695 8.01226 9.86524 8.00143 9.86524C7.99344 9.86524 7.98603 9.86695 7.97804 9.86695H8.03279ZM4.6406 6.45194C4.64915 6.45023 4.65543 6.4411 4.66455 6.43882C5.20121 8.38072 6.59048 9.83387 8.002 9.86467C9.28747 9.80535 10.8661 8.37844 11.3919 6.44624C11.6337 6.46107 11.8755 6.17591 11.9434 5.77898C12.0135 5.36493 11.8664 4.99537 11.6172 4.9526C11.6012 4.94975 11.5847 4.96001 11.5693 4.96058C11.4968 1.76515 9.97869 0.638217 8.06701 0.589741C6.09546 0.599436 4.33035 1.96932 4.44213 4.96172C4.42331 4.96172 4.40563 4.94975 4.38738 4.95317C4.13702 4.99594 3.99102 5.3655 4.06117 5.77955C4.1296 6.19245 4.38966 6.49357 4.6406 6.45194ZM10.6579 10.4196L8.86658 13.9247L8.58371 11.6452L9.0257 11.2825H7.95466H6.97544L7.418 11.6452L7.13456 13.9247L5.3455 10.4196C2.2339 10.8388 0 12.1721 0 15.4138H16C16.0011 12.1716 13.7678 10.8393 10.6579 10.4196Z" fill="#888888"/>
</svg>
