<svg width="80" height="80" viewBox="0 0 80 80" fill="none" xmlns="http://www.w3.org/2000/svg">
<circle cx="40" cy="40" r="38" fill="white" stroke="#5ECD81" stroke-width="4"/>
<g clip-path="url(#clip0_123_1928)">
<path d="M41.6667 33.3333C42.9927 33.3333 44.2645 33.8601 45.2022 34.7978C46.1399 35.7355 46.6667 37.0073 46.6667 38.3333C46.6667 38.7754 46.8423 39.1993 47.1548 39.5118C47.4674 39.8244 47.8913 40 48.3333 40C48.7754 40 49.1993 39.8244 49.5118 39.5118C49.8244 39.1993 50 38.7754 50 38.3333C50 36.1232 49.122 34.0036 47.5592 32.4408C45.9964 30.878 43.8768 30 41.6667 30C41.2246 30 40.8007 30.1756 40.4882 30.4882C40.1756 30.8007 40 31.2246 40 31.6667C40 32.1087 40.1756 32.5326 40.4882 32.8452C40.8007 33.1577 41.2246 33.3333 41.6667 33.3333Z" fill="#5ECD81"/>
<path d="M41.6673 26.6666C44.7615 26.6666 47.729 27.8957 49.9169 30.0837C52.1048 32.2716 53.334 35.2391 53.334 38.3333C53.334 38.7753 53.5096 39.1992 53.8221 39.5118C54.1347 39.8243 54.5586 39.9999 55.0007 39.9999C55.4427 39.9999 55.8666 39.8243 56.1792 39.5118C56.4917 39.1992 56.6673 38.7753 56.6673 38.3333C56.6673 34.355 55.087 30.5397 52.2739 27.7266C49.4609 24.9136 45.6456 23.3333 41.6673 23.3333C41.2253 23.3333 40.8014 23.5088 40.4888 23.8214C40.1762 24.134 40.0007 24.5579 40.0007 24.9999C40.0007 25.4419 40.1762 25.8659 40.4888 26.1784C40.8014 26.491 41.2253 26.6666 41.6673 26.6666ZM56.2506 46.5166C56.159 46.249 56.0007 46.0092 55.7908 45.8197C55.5809 45.6302 55.3262 45.4972 55.0507 45.4333L45.0506 43.1499C44.7792 43.0884 44.4967 43.0958 44.2288 43.1715C43.961 43.2472 43.7164 43.3887 43.5173 43.5833C43.284 43.7999 43.2673 43.8166 42.184 45.8833C38.5893 44.2268 35.709 41.3347 34.0673 37.7333C36.184 36.6666 36.2007 36.6666 36.4173 36.4166C36.6118 36.2175 36.7534 35.9729 36.8291 35.7051C36.9048 35.4372 36.9122 35.1547 36.8506 34.8833L34.5673 24.9999C34.5034 24.7244 34.3704 24.4697 34.1809 24.2598C33.9914 24.0498 33.7515 23.8916 33.484 23.7999C33.0948 23.6609 32.6928 23.5604 32.284 23.4999C31.8627 23.4022 31.4329 23.3464 31.0007 23.3333C28.9673 23.3333 27.0173 24.141 25.5795 25.5788C24.1417 27.0165 23.334 28.9666 23.334 30.9999C23.3428 37.8044 26.0498 44.3277 30.8613 49.1392C35.6728 53.9508 42.1961 56.6578 49.0007 56.6666C50.0075 56.6666 51.0044 56.4683 51.9346 56.083C52.8647 55.6977 53.7099 55.133 54.4218 54.4211C55.1337 53.7092 55.6984 52.864 56.0837 51.9338C56.469 51.0037 56.6673 50.0067 56.6673 48.9999C56.6678 48.5757 56.6344 48.1521 56.5673 47.7332C56.4973 47.3193 56.3913 46.9122 56.2506 46.5166Z" fill="#5ECD81"/>
</g>
<defs>
<clipPath id="clip0_123_1928">
<rect width="40" height="40" fill="white" transform="translate(20 20)"/>
</clipPath>
</defs>
</svg>
