<svg width="22" height="20" viewBox="0 0 22 20" fill="none" xmlns="http://www.w3.org/2000/svg">
<path d="M14.5 17C14.5 18.1046 15.3954 19 16.5 19C17.6046 19 18.5 18.1046 18.5 17C18.5 15.8954 17.6046 15 16.5 15H6.86729C6.36964 15 5.94772 14.6341 5.87735 14.1414M17.5 12H5.57143L4 1H1.5M8.5 3H20.5L18.5 9M10.5 17C10.5 18.1046 9.60457 19 8.5 19C7.39543 19 6.5 18.1046 6.5 17C6.5 15.8954 7.39543 15 8.5 15C9.60457 15 10.5 15.8954 10.5 17Z" stroke="white" stroke-width="1.5" stroke-linecap="round" stroke-linejoin="round"/>
</svg>
