<svg width="15" height="16" viewBox="0 0 15 16" fill="none" xmlns="http://www.w3.org/2000/svg">
<path d="M5.14286 1V2H9.25714V1C9.25714 0.447812 9.71679 0 10.2857 0C10.8546 0 11.3143 0.447812 11.3143 1V2H12.8571C13.7089 2 14.4 2.67156 14.4 3.5V5H0V3.5C0 2.67156 0.69075 2 1.54286 2H3.08571V1C3.08571 0.447812 3.54536 0 4.11429 0C4.68321 0 5.14286 0.447812 5.14286 1ZM0 6H14.4V14.5C14.4 15.3281 13.7089 16 12.8571 16H1.54286C0.69075 16 0 15.3281 0 14.5V6ZM2.05714 9.5C2.05714 9.775 2.28729 10 2.57143 10H3.6C3.88286 10 4.11429 9.775 4.11429 9.5V8.5C4.11429 8.225 3.88286 8 3.6 8H2.57143C2.28729 8 2.05714 8.225 2.05714 8.5V9.5ZM6.17143 9.5C6.17143 9.775 6.40286 10 6.68571 10H7.71429C7.99714 10 8.22857 9.775 8.22857 9.5V8.5C8.22857 8.225 7.99714 8 7.71429 8H6.68571C6.40286 8 6.17143 8.225 6.17143 8.5V9.5ZM10.8 8C10.5171 8 10.2857 8.225 10.2857 8.5V9.5C10.2857 9.775 10.5171 10 10.8 10H11.8286C12.1114 10 12.3429 9.775 12.3429 9.5V8.5C12.3429 8.225 12.1114 8 11.8286 8H10.8ZM2.05714 13.5C2.05714 13.775 2.28729 14 2.57143 14H3.6C3.88286 14 4.11429 13.775 4.11429 13.5V12.5C4.11429 12.225 3.88286 12 3.6 12H2.57143C2.28729 12 2.05714 12.225 2.05714 12.5V13.5ZM6.68571 12C6.40286 12 6.17143 12.225 6.17143 12.5V13.5C6.17143 13.775 6.40286 14 6.68571 14H7.71429C7.99714 14 8.22857 13.775 8.22857 13.5V12.5C8.22857 12.225 7.99714 12 7.71429 12H6.68571ZM10.2857 13.5C10.2857 13.775 10.5171 14 10.8 14H11.8286C12.1114 14 12.3429 13.775 12.3429 13.5V12.5C12.3429 12.225 12.1114 12 11.8286 12H10.8C10.5171 12 10.2857 12.225 10.2857 12.5V13.5Z" fill="#888888"/>
</svg>
