<svg width="80" height="80" viewBox="0 0 80 80" fill="none" xmlns="http://www.w3.org/2000/svg">
<circle cx="40" cy="40" r="38" fill="white" stroke="#5ECD81" stroke-width="4"/>
<path d="M52 22.1999L28 31.7999C25.8 32.5999 24 35.3999 24 37.7999V55.1999C24 57.5999 25.8 58.7999 28 57.9999L52 48.3999C54.2 47.5999 56 44.7999 56 42.3999V24.9999C56 22.5999 54.2 21.3999 52 22.1999ZM53.2 27.3999L41.2 45.9999L27.8 36.9999C27.6 36.7999 27 36.1999 27.4 35.5999C27.8 34.7999 28.8 35.1999 28.8 35.1999L41.4 39.7999C41.4 39.7999 51 27.1999 51.6 26.3999C51.8 25.9999 52.4 25.7999 53 26.1999C53.6 26.5999 53.4 27.1999 53.2 27.3999Z" fill="#5ECD81"/>
</svg>
