<svg width="80" height="80" viewBox="0 0 80 80" fill="none" xmlns="http://www.w3.org/2000/svg">
<circle cx="40" cy="40" r="38" fill="white" stroke="#5ECD81" stroke-width="4"/>
<g clip-path="url(#clip0_123_1937)">
<g clip-path="url(#clip1_123_1937)">
<path fill-rule="evenodd" clip-rule="evenodd" d="M60 40C60 51.045 51.045 60 40 60C28.955 60 20 51.045 20 40C20 28.955 28.955 20 40 20C51.045 20 60 28.955 60 40ZM40.7167 34.765C38.7717 35.5733 34.8833 37.2483 29.0533 39.7883C28.1067 40.165 27.61 40.5333 27.565 40.8933C27.4883 41.5033 28.2517 41.7433 29.2883 42.0683C29.43 42.1133 29.5767 42.1583 29.7267 42.2083C30.7483 42.54 32.1217 42.9283 32.835 42.9433C33.4833 42.9567 34.2067 42.69 35.005 42.1433C40.4517 38.465 43.2633 36.6067 43.44 36.5667C43.565 36.5383 43.7383 36.5017 43.855 36.6067C43.9717 36.71 43.96 36.9067 43.9483 36.96C43.8717 37.2817 40.8817 40.0633 39.3317 41.5033C38.8483 41.9517 38.5067 42.27 38.4367 42.3433C38.28 42.505 38.12 42.66 37.9667 42.8083C37.0167 43.7217 36.3067 44.4083 38.0067 45.5283C38.8233 46.0667 39.4767 46.5117 40.1283 46.955C40.84 47.44 41.55 47.9233 42.47 48.5267C42.7033 48.68 42.9267 48.8383 43.145 48.9933C43.9733 49.585 44.7183 50.115 45.6383 50.0317C46.1717 49.9817 46.725 49.48 47.005 47.9817C47.6667 44.4383 48.97 36.765 49.2717 33.6017C49.29 33.339 49.2788 33.0751 49.2383 32.815C49.2141 32.6049 49.1118 32.4116 48.9517 32.2733C48.7133 32.0783 48.3433 32.0367 48.1767 32.04C47.425 32.0533 46.2717 32.455 40.7167 34.765Z" fill="#5ECD81"/>
</g>
</g>
<defs>
<clipPath id="clip0_123_1937">
<rect width="40" height="40" fill="white" transform="translate(20 20)"/>
</clipPath>
<clipPath id="clip1_123_1937">
<rect width="40" height="40" fill="white" transform="translate(20 20)"/>
</clipPath>
</defs>
</svg>
