<svg width="602" height="526" viewBox="0 0 602 526" fill="none" xmlns="http://www.w3.org/2000/svg">
<mask id="path-1-inside-1_19_1260" fill="white">
<path fill-rule="evenodd" clip-rule="evenodd" d="M263 0H673V526H263H242V525.174C106.568 514.474 0 401.182 0 263C0 124.818 106.568 11.5256 242 0.82618V0H263Z"/>
</mask>
<path d="M673 0H674V-1H673V0ZM673 526V527H674V526H673ZM242 526H241V527H242V526ZM242 525.174H243V524.25L242.079 524.177L242 525.174ZM242 0.82618L242.079 1.82307L243 1.75029V0.82618H242ZM242 0V-1H241V0H242ZM263 1H673V-1H263V1ZM672 0V526H674V0H672ZM673 525H263V527H673V525ZM263 525H242V527H263V525ZM243 526V525.174H241V526H243ZM242.079 524.177C107.162 513.518 1 400.656 1 263H-1C-1 401.708 105.973 515.431 241.921 526.171L242.079 524.177ZM1 263C1 125.344 107.162 12.4817 242.079 1.82307L241.921 -0.170714C105.973 10.5695 -1 124.292 -1 263H1ZM243 0.82618V0H241V0.82618H243ZM242 1H263V-1H242V1Z" fill="#FFDA1F" mask="url(#path-1-inside-1_19_1260)"/>
</svg>
