<svg width="375" height="439" viewBox="0 0 375 439" fill="none" xmlns="http://www.w3.org/2000/svg">
<mask id="path-1-inside-1_31_1783" fill="white">
<path fill-rule="evenodd" clip-rule="evenodd" d="M0.5 267.357L0.5 -3.05176e-05H374.5V267.357V281.051H373.913C366.305 369.366 285.751 438.857 187.5 438.857C89.2488 438.857 8.69515 369.366 1.08746 281.051H0.5L0.5 267.357Z"/>
</mask>
<path d="M0.5 -3.05176e-05L0.5 -1.00003H-0.5V-3.05176e-05H0.5ZM374.5 -3.05176e-05H375.5V-1.00003H374.5V-3.05176e-05ZM374.5 281.051V282.051H375.5V281.051H374.5ZM373.913 281.051V280.051H372.995L372.916 280.965L373.913 281.051ZM1.08746 281.051L2.08377 280.965L2.00502 280.051H1.08746V281.051ZM0.5 281.051H-0.5V282.051H0.5L0.5 281.051ZM1.5 267.357L1.5 -3.05176e-05H-0.5L-0.5 267.357H1.5ZM0.5 0.999969H374.5V-1.00003H0.5L0.5 0.999969ZM373.5 -3.05176e-05V267.357H375.5V-3.05176e-05H373.5ZM373.5 267.357V281.051H375.5V267.357H373.5ZM374.5 280.051H373.913V282.051H374.5V280.051ZM372.916 280.965C365.359 368.697 285.301 437.857 187.5 437.857V439.857C286.202 439.857 367.251 370.034 374.909 281.137L372.916 280.965ZM187.5 437.857C89.6993 437.857 9.64127 368.697 2.08377 280.965L0.091146 281.137C7.74903 370.034 88.7983 439.857 187.5 439.857V437.857ZM1.08746 280.051H0.5L0.5 282.051H1.08746L1.08746 280.051ZM1.5 281.051L1.5 267.357H-0.5L-0.5 281.051H1.5Z" fill="#FFDA1F" mask="url(#path-1-inside-1_31_1783)"/>
</svg>
