<svg width="73" height="93" viewBox="0 0 73 93" fill="none" xmlns="http://www.w3.org/2000/svg">
<path d="M31.3492 10.4499C31.3492 6.9994 28.9287 3.0854 26.1992 0.149902C23.6242 2.7249 21.0492 7.2569 21.0492 10.4499C21.0492 12.9219 23.3667 15.5999 26.1992 15.5999C29.0317 15.5999 31.3492 13.1794 31.3492 10.4499ZM51.9492 10.4499C51.9492 6.9994 49.5287 3.0854 46.7992 0.149902C44.2242 2.7249 41.6492 7.2569 41.6492 10.4499C41.6492 12.9219 43.9667 15.5999 46.7992 15.5999C49.6317 15.5999 51.9492 13.1794 51.9492 10.4499ZM31.3492 41.3499V23.3249C31.3492 20.4924 29.0317 18.1749 26.1992 18.1749C23.2637 18.1749 21.0492 20.6984 21.0492 23.3249V41.3499C21.0492 44.1824 23.3667 46.4999 26.1992 46.4999C29.1347 46.4999 31.3492 43.9764 31.3492 41.3499ZM51.9492 41.3499V23.3249C51.9492 20.4924 49.6317 18.1749 46.7992 18.1749C43.8637 18.1749 41.6492 20.6984 41.6492 23.3249V41.3499C41.6492 44.1824 43.9667 46.4999 46.7992 46.4999C49.7347 46.4999 51.9492 43.9764 51.9492 41.3499ZM72.5492 46.4999C72.5492 38.8779 65.2877 32.2344 54.5242 28.6809V41.3499C54.5242 45.6244 51.0737 49.0749 46.7992 49.0749C42.5247 49.0749 39.0742 45.6244 39.0742 41.3499V25.9514C38.1987 25.9514 37.3747 25.8999 36.4992 25.8999C35.6237 25.8999 34.7997 25.9514 33.9242 25.9514V41.3499C33.9242 45.6244 30.4737 49.0749 26.1992 49.0749C21.9247 49.0749 18.4742 45.6244 18.4742 41.3499V28.6809C7.71072 32.2344 0.449219 38.8779 0.449219 46.4999C0.449219 53.7614 5.34172 60.1474 16.9807 63.8554C22.6972 65.6579 29.2892 69.6234 36.4992 69.6234C43.7092 69.6234 50.3527 65.6064 56.0177 63.8039C67.6052 60.1474 72.5492 53.7614 72.5492 46.4999ZM36.4992 74.4644C43.8637 74.4644 50.6102 70.3959 56.4812 68.7479C66.2662 66.0184 69.3047 61.8469 72.5492 56.7999V72.2499C72.5492 83.6314 56.4297 92.8499 36.4992 92.8499C16.5687 92.8499 0.449219 83.6314 0.449219 72.2499V56.7999C3.74522 61.8984 7.24722 66.0699 16.6717 68.7994C22.4912 70.4989 29.2377 74.4644 36.4992 74.4644Z" fill="#5ECD81"/>
</svg>
